<mxfile host="Electron" modified="2023-09-05T17:28:22.692Z" agent="Mozilla/5.0 (Windows NT 10.0; Win64; x64) AppleWebKit/537.36 (KHTML, like Gecko) draw.io/21.6.8 Chrome/114.0.5735.289 Electron/25.5.0 Safari/537.36" etag="R_EH_gZaC8C1wht-auZ-" version="21.6.8" type="device">
  <diagram name="Page-1" id="e7e014a7-5840-1c2e-5031-d8a46d1fe8dd">
    <mxGraphModel dx="3324" dy="1127" grid="1" gridSize="10" guides="1" tooltips="1" connect="1" arrows="1" fold="1" page="1" pageScale="1" pageWidth="1169" pageHeight="826" background="none" math="0" shadow="0">
      <root>
        <mxCell id="0" />
        <mxCell id="1" parent="0" />
        <mxCell id="3IxjjhFFeJZ0c-_MF_8P-48" value="" style="rounded=0;whiteSpace=wrap;html=1;fillColor=#dae8fc;strokeColor=#6c8ebf;" parent="1" vertex="1">
          <mxGeometry x="100" y="50" width="1380" height="1030" as="geometry" />
        </mxCell>
        <mxCell id="3IxjjhFFeJZ0c-_MF_8P-41" value="" style="rounded=0;whiteSpace=wrap;html=1;fillColor=#f8cecc;strokeColor=#b85450;" parent="1" vertex="1">
          <mxGeometry x="-1110" y="50" width="550" height="960" as="geometry" />
        </mxCell>
        <mxCell id="3IxjjhFFeJZ0c-_MF_8P-49" value="Profile Hunter" style="text;html=1;strokeColor=none;fillColor=none;align=center;verticalAlign=middle;whiteSpace=wrap;rounded=0;fontSize=20;fontStyle=1" parent="1" vertex="1">
          <mxGeometry x="-1090" y="60" width="170" height="30" as="geometry" />
        </mxCell>
        <mxCell id="3IxjjhFFeJZ0c-_MF_8P-61" value="" style="edgeStyle=orthogonalEdgeStyle;rounded=0;orthogonalLoop=1;jettySize=auto;html=1;fillColor=#e1d5e7;strokeColor=#9673a6;" parent="1" source="3IxjjhFFeJZ0c-_MF_8P-58" target="3IxjjhFFeJZ0c-_MF_8P-60" edge="1">
          <mxGeometry relative="1" as="geometry" />
        </mxCell>
        <mxCell id="3IxjjhFFeJZ0c-_MF_8P-58" value="Failover" style="ellipse;whiteSpace=wrap;html=1;aspect=fixed;fontSize=16;fillColor=#e1d5e7;strokeColor=#9673a6;fontStyle=1;strokeWidth=5;" parent="1" vertex="1">
          <mxGeometry x="190" y="140" width="80" height="80" as="geometry" />
        </mxCell>
        <mxCell id="3IxjjhFFeJZ0c-_MF_8P-108" value="" style="edgeStyle=orthogonalEdgeStyle;rounded=0;orthogonalLoop=1;jettySize=auto;html=1;fillColor=#e1d5e7;strokeColor=#9673a6;" parent="1" source="3IxjjhFFeJZ0c-_MF_8P-60" target="3IxjjhFFeJZ0c-_MF_8P-107" edge="1">
          <mxGeometry relative="1" as="geometry" />
        </mxCell>
        <mxCell id="3IxjjhFFeJZ0c-_MF_8P-60" value="scanning group" style="rounded=1;whiteSpace=wrap;html=1;verticalAlign=top;fontStyle=1;fillColor=#e1d5e7;strokeColor=#9673a6;" parent="1" vertex="1">
          <mxGeometry x="170" y="250" width="120" height="60" as="geometry" />
        </mxCell>
        <mxCell id="3IxjjhFFeJZ0c-_MF_8P-62" value="" style="edgeStyle=orthogonalEdgeStyle;rounded=0;orthogonalLoop=1;jettySize=auto;html=1;fillColor=#fff2cc;strokeColor=#d6b656;" parent="1" source="3IxjjhFFeJZ0c-_MF_8P-63" target="3IxjjhFFeJZ0c-_MF_8P-64" edge="1">
          <mxGeometry relative="1" as="geometry" />
        </mxCell>
        <mxCell id="3IxjjhFFeJZ0c-_MF_8P-63" value="Auto Policy" style="ellipse;whiteSpace=wrap;html=1;aspect=fixed;fontSize=16;fillColor=#fff2cc;strokeColor=#d6b656;fontStyle=1;strokeWidth=5;" parent="1" vertex="1">
          <mxGeometry x="490" y="140" width="80" height="80" as="geometry" />
        </mxCell>
        <mxCell id="3IxjjhFFeJZ0c-_MF_8P-69" value="" style="edgeStyle=orthogonalEdgeStyle;rounded=0;orthogonalLoop=1;jettySize=auto;html=1;fillColor=#fff2cc;strokeColor=#d6b656;" parent="1" source="3IxjjhFFeJZ0c-_MF_8P-64" target="3IxjjhFFeJZ0c-_MF_8P-68" edge="1">
          <mxGeometry relative="1" as="geometry" />
        </mxCell>
        <mxCell id="3IxjjhFFeJZ0c-_MF_8P-75" value="select wanoe / pon" style="edgeLabel;html=1;align=center;verticalAlign=middle;resizable=0;points=[];labelBackgroundColor=#dae8fc;" parent="3IxjjhFFeJZ0c-_MF_8P-69" vertex="1" connectable="0">
          <mxGeometry x="-0.0333" relative="1" as="geometry">
            <mxPoint as="offset" />
          </mxGeometry>
        </mxCell>
        <mxCell id="3IxjjhFFeJZ0c-_MF_8P-64" value="selecting interface" style="rounded=1;whiteSpace=wrap;html=1;verticalAlign=top;fontStyle=1;fillColor=#fff2cc;strokeColor=#d6b656;" parent="1" vertex="1">
          <mxGeometry x="470" y="300" width="120" height="60" as="geometry" />
        </mxCell>
        <mxCell id="3IxjjhFFeJZ0c-_MF_8P-65" value="Wan Manager" style="text;html=1;strokeColor=none;fillColor=none;align=center;verticalAlign=middle;whiteSpace=wrap;rounded=0;fontSize=20;fontStyle=1" parent="1" vertex="1">
          <mxGeometry x="530" y="50" width="190" height="30" as="geometry" />
        </mxCell>
        <mxCell id="3IxjjhFFeJZ0c-_MF_8P-67" value="" style="edgeStyle=orthogonalEdgeStyle;html=1;verticalAlign=bottom;endArrow=open;endSize=8;strokeColor=#9673a6;rounded=0;fillColor=#e1d5e7;" parent="1" source="GNvXrXQn0kBdOVzkOIlX-12" target="3IxjjhFFeJZ0c-_MF_8P-58" edge="1">
          <mxGeometry relative="1" as="geometry">
            <mxPoint x="250" y="160" as="targetPoint" />
            <mxPoint x="175" y="110" as="sourcePoint" />
          </mxGeometry>
        </mxCell>
        <mxCell id="3IxjjhFFeJZ0c-_MF_8P-72" value="" style="edgeStyle=orthogonalEdgeStyle;rounded=0;orthogonalLoop=1;jettySize=auto;html=1;fillColor=#fff2cc;strokeColor=#d6b656;" parent="1" source="3IxjjhFFeJZ0c-_MF_8P-68" target="3IxjjhFFeJZ0c-_MF_8P-64" edge="1">
          <mxGeometry relative="1" as="geometry">
            <mxPoint x="780" y="470" as="targetPoint" />
            <Array as="points">
              <mxPoint x="760" y="470" />
              <mxPoint x="760" y="330" />
            </Array>
          </mxGeometry>
        </mxCell>
        <mxCell id="3IxjjhFFeJZ0c-_MF_8P-74" value="validation timer&lt;br&gt;expired" style="edgeLabel;html=1;align=center;verticalAlign=middle;resizable=0;points=[];labelBackgroundColor=#dae8fc;" parent="3IxjjhFFeJZ0c-_MF_8P-72" vertex="1" connectable="0">
          <mxGeometry x="-0.1778" y="-1" relative="1" as="geometry">
            <mxPoint x="-81" y="17" as="offset" />
          </mxGeometry>
        </mxCell>
        <mxCell id="3IxjjhFFeJZ0c-_MF_8P-77" value="" style="edgeStyle=orthogonalEdgeStyle;rounded=0;orthogonalLoop=1;jettySize=auto;html=1;fillColor=#fff2cc;strokeColor=#d6b656;" parent="1" source="3IxjjhFFeJZ0c-_MF_8P-68" target="3IxjjhFFeJZ0c-_MF_8P-76" edge="1">
          <mxGeometry relative="1" as="geometry" />
        </mxCell>
        <mxCell id="3IxjjhFFeJZ0c-_MF_8P-68" value="wait for interface" style="rounded=1;whiteSpace=wrap;html=1;verticalAlign=top;fontStyle=1;fillColor=#fff2cc;strokeColor=#d6b656;" parent="1" vertex="1">
          <mxGeometry x="420" y="440" width="220" height="100" as="geometry" />
        </mxCell>
        <mxCell id="3IxjjhFFeJZ0c-_MF_8P-96" value="" style="edgeStyle=orthogonalEdgeStyle;rounded=0;orthogonalLoop=1;jettySize=auto;html=1;fillColor=#fff2cc;strokeColor=#d6b656;" parent="1" source="3IxjjhFFeJZ0c-_MF_8P-76" target="3IxjjhFFeJZ0c-_MF_8P-95" edge="1">
          <mxGeometry relative="1" as="geometry" />
        </mxCell>
        <mxCell id="3IxjjhFFeJZ0c-_MF_8P-100" value="validation&lt;br&gt;timer&lt;br&gt;expired" style="edgeLabel;html=1;align=center;verticalAlign=middle;resizable=0;points=[];labelBackgroundColor=#dae8fc;" parent="3IxjjhFFeJZ0c-_MF_8P-96" vertex="1" connectable="0">
          <mxGeometry x="-0.0734" y="-9" relative="1" as="geometry">
            <mxPoint y="-36" as="offset" />
          </mxGeometry>
        </mxCell>
        <mxCell id="GNvXrXQn0kBdOVzkOIlX-3" value="" style="edgeStyle=orthogonalEdgeStyle;rounded=0;orthogonalLoop=1;jettySize=auto;html=1;fillColor=#fff2cc;strokeColor=#d6b656;" parent="1" source="3IxjjhFFeJZ0c-_MF_8P-76" target="GNvXrXQn0kBdOVzkOIlX-2" edge="1">
          <mxGeometry relative="1" as="geometry" />
        </mxCell>
        <mxCell id="3IxjjhFFeJZ0c-_MF_8P-76" value="scanning interface" style="rounded=1;whiteSpace=wrap;html=1;verticalAlign=top;fontStyle=1;fillColor=#fff2cc;strokeColor=#d6b656;" parent="1" vertex="1">
          <mxGeometry x="470" y="600" width="120" height="60" as="geometry" />
        </mxCell>
        <mxCell id="3IxjjhFFeJZ0c-_MF_8P-78" value="" style="endArrow=classic;html=1;rounded=0;fillColor=#fff2cc;strokeColor=#000000;dashed=1;" parent="1" source="3IxjjhFFeJZ0c-_MF_8P-76" target="3IxjjhFFeJZ0c-_MF_8P-79" edge="1">
          <mxGeometry width="50" height="50" relative="1" as="geometry">
            <mxPoint x="650" y="730" as="sourcePoint" />
            <mxPoint x="700" y="680" as="targetPoint" />
            <Array as="points">
              <mxPoint x="820" y="630" />
              <mxPoint x="820" y="190" />
            </Array>
          </mxGeometry>
        </mxCell>
        <mxCell id="3IxjjhFFeJZ0c-_MF_8P-88" value="" style="edgeStyle=orthogonalEdgeStyle;rounded=0;orthogonalLoop=1;jettySize=auto;html=1;fillColor=#d5e8d4;strokeColor=#82b366;" parent="1" source="3IxjjhFFeJZ0c-_MF_8P-79" target="3IxjjhFFeJZ0c-_MF_8P-87" edge="1">
          <mxGeometry relative="1" as="geometry" />
        </mxCell>
        <mxCell id="3IxjjhFFeJZ0c-_MF_8P-79" value="Interface" style="ellipse;whiteSpace=wrap;html=1;aspect=fixed;fontSize=16;fillColor=#d5e8d4;strokeColor=#82b366;fontStyle=1;strokeWidth=5;" parent="1" vertex="1">
          <mxGeometry x="990" y="150" width="80" height="80" as="geometry" />
        </mxCell>
        <mxCell id="3IxjjhFFeJZ0c-_MF_8P-131" value="" style="edgeStyle=orthogonalEdgeStyle;rounded=0;orthogonalLoop=1;jettySize=auto;html=1;fillColor=#ffe6cc;strokeColor=#d79b00;" parent="1" source="3IxjjhFFeJZ0c-_MF_8P-80" target="3IxjjhFFeJZ0c-_MF_8P-130" edge="1">
          <mxGeometry relative="1" as="geometry" />
        </mxCell>
        <mxCell id="3IxjjhFFeJZ0c-_MF_8P-80" value="Profile Hunter" style="ellipse;whiteSpace=wrap;html=1;aspect=fixed;fontSize=16;fontStyle=1;fillColor=#ffe6cc;strokeColor=#d79b00;strokeWidth=5;" parent="1" vertex="1">
          <mxGeometry x="-850" y="75" width="80" height="80" as="geometry" />
        </mxCell>
        <mxCell id="3IxjjhFFeJZ0c-_MF_8P-81" value="" style="rounded=0;whiteSpace=wrap;html=1;fillColor=#ffe6cc;strokeColor=#d79b00;" parent="1" vertex="1">
          <mxGeometry x="-460" y="50" width="480" height="960" as="geometry" />
        </mxCell>
        <mxCell id="3IxjjhFFeJZ0c-_MF_8P-82" value="Eth Agent" style="text;html=1;strokeColor=none;fillColor=none;align=center;verticalAlign=middle;whiteSpace=wrap;rounded=0;fontSize=20;fontStyle=1" parent="1" vertex="1">
          <mxGeometry x="-440" y="70" width="110" height="30" as="geometry" />
        </mxCell>
        <mxCell id="3IxjjhFFeJZ0c-_MF_8P-113" value="" style="edgeStyle=orthogonalEdgeStyle;rounded=0;orthogonalLoop=1;jettySize=auto;html=1;fillColor=#dae8fc;strokeColor=#6c8ebf;" parent="1" source="3IxjjhFFeJZ0c-_MF_8P-84" target="3IxjjhFFeJZ0c-_MF_8P-112" edge="1">
          <mxGeometry relative="1" as="geometry" />
        </mxCell>
        <mxCell id="3IxjjhFFeJZ0c-_MF_8P-84" value="Eth" style="ellipse;whiteSpace=wrap;html=1;aspect=fixed;fontSize=16;fontStyle=1;fillColor=#dae8fc;strokeColor=#6c8ebf;strokeWidth=5;" parent="1" vertex="1">
          <mxGeometry x="-310" y="160" width="80" height="80" as="geometry" />
        </mxCell>
        <mxCell id="3IxjjhFFeJZ0c-_MF_8P-92" value="" style="edgeStyle=orthogonalEdgeStyle;rounded=0;orthogonalLoop=1;jettySize=auto;html=1;fillColor=#d5e8d4;strokeColor=#82b366;" parent="1" source="3IxjjhFFeJZ0c-_MF_8P-87" target="3IxjjhFFeJZ0c-_MF_8P-91" edge="1">
          <mxGeometry relative="1" as="geometry" />
        </mxCell>
        <mxCell id="3IxjjhFFeJZ0c-_MF_8P-87" value="configuring wan" style="rounded=1;whiteSpace=wrap;html=1;verticalAlign=top;fontStyle=1;fillColor=#d5e8d4;strokeColor=#82b366;" parent="1" vertex="1">
          <mxGeometry x="900" y="320" width="260" height="90" as="geometry" />
        </mxCell>
        <mxCell id="3IxjjhFFeJZ0c-_MF_8P-89" value="eth0 up" style="rounded=0;whiteSpace=wrap;html=1;fillColor=#ffe6cc;strokeColor=#d79b00;" parent="1" vertex="1">
          <mxGeometry x="-140" y="80" width="80" height="50" as="geometry" />
        </mxCell>
        <mxCell id="3IxjjhFFeJZ0c-_MF_8P-90" value="" style="endArrow=classic;html=1;rounded=0;dashed=1;" parent="1" source="3IxjjhFFeJZ0c-_MF_8P-89" target="3IxjjhFFeJZ0c-_MF_8P-68" edge="1">
          <mxGeometry width="50" height="50" relative="1" as="geometry">
            <mxPoint x="360" y="780" as="sourcePoint" />
            <mxPoint x="510" y="490" as="targetPoint" />
            <Array as="points">
              <mxPoint x="50" y="105" />
              <mxPoint x="50" y="490" />
            </Array>
          </mxGeometry>
        </mxCell>
        <mxCell id="3IxjjhFFeJZ0c-_MF_8P-94" value="" style="edgeStyle=orthogonalEdgeStyle;rounded=0;orthogonalLoop=1;jettySize=auto;html=1;fillColor=#d5e8d4;strokeColor=#82b366;" parent="1" source="3IxjjhFFeJZ0c-_MF_8P-91" target="3IxjjhFFeJZ0c-_MF_8P-93" edge="1">
          <mxGeometry relative="1" as="geometry" />
        </mxCell>
        <mxCell id="3IxjjhFFeJZ0c-_MF_8P-91" value="validating wan" style="rounded=1;whiteSpace=wrap;html=1;verticalAlign=top;fontStyle=1;fillColor=#d5e8d4;strokeColor=#82b366;" parent="1" vertex="1">
          <mxGeometry x="970" y="450" width="120" height="70" as="geometry" />
        </mxCell>
        <mxCell id="3IxjjhFFeJZ0c-_MF_8P-99" value="" style="edgeStyle=orthogonalEdgeStyle;rounded=0;orthogonalLoop=1;jettySize=auto;html=1;fillColor=#d5e8d4;strokeColor=#82b366;" parent="1" source="3IxjjhFFeJZ0c-_MF_8P-93" target="3IxjjhFFeJZ0c-_MF_8P-98" edge="1">
          <mxGeometry relative="1" as="geometry" />
        </mxCell>
        <mxCell id="3IxjjhFFeJZ0c-_MF_8P-104" value="" style="edgeStyle=orthogonalEdgeStyle;rounded=0;orthogonalLoop=1;jettySize=auto;html=1;fillColor=#d5e8d4;strokeColor=#82b366;" parent="1" source="3IxjjhFFeJZ0c-_MF_8P-93" target="3IxjjhFFeJZ0c-_MF_8P-103" edge="1">
          <mxGeometry relative="1" as="geometry" />
        </mxCell>
        <mxCell id="3IxjjhFFeJZ0c-_MF_8P-93" value="obtaining ip addresses" style="rounded=1;whiteSpace=wrap;html=1;verticalAlign=top;fontStyle=1;fillColor=#d5e8d4;strokeColor=#82b366;" parent="1" vertex="1">
          <mxGeometry x="920" y="600" width="220" height="110" as="geometry" />
        </mxCell>
        <mxCell id="3IxjjhFFeJZ0c-_MF_8P-102" value="" style="edgeStyle=orthogonalEdgeStyle;rounded=0;orthogonalLoop=1;jettySize=auto;html=1;fillColor=#d5e8d4;strokeColor=#82b366;" parent="1" source="3IxjjhFFeJZ0c-_MF_8P-98" target="3IxjjhFFeJZ0c-_MF_8P-101" edge="1">
          <mxGeometry relative="1" as="geometry" />
        </mxCell>
        <mxCell id="3IxjjhFFeJZ0c-_MF_8P-98" value="deconfiguring wan" style="rounded=1;whiteSpace=wrap;html=1;verticalAlign=top;fontStyle=1;fillColor=#d5e8d4;strokeColor=#82b366;" parent="1" vertex="1">
          <mxGeometry x="1240" y="625" width="120" height="60" as="geometry" />
        </mxCell>
        <mxCell id="3IxjjhFFeJZ0c-_MF_8P-101" value="exit" style="rounded=1;whiteSpace=wrap;html=1;fillColor=#d5e8d4;strokeColor=#82b366;verticalAlign=top;fontStyle=1" parent="1" vertex="1">
          <mxGeometry x="1240" y="530" width="120" height="60" as="geometry" />
        </mxCell>
        <mxCell id="3IxjjhFFeJZ0c-_MF_8P-106" value="" style="edgeStyle=orthogonalEdgeStyle;rounded=0;orthogonalLoop=1;jettySize=auto;html=1;fillColor=#d5e8d4;strokeColor=#82b366;" parent="1" source="3IxjjhFFeJZ0c-_MF_8P-103" target="3IxjjhFFeJZ0c-_MF_8P-105" edge="1">
          <mxGeometry relative="1" as="geometry">
            <Array as="points">
              <mxPoint x="1030" y="850" />
              <mxPoint x="940" y="850" />
            </Array>
          </mxGeometry>
        </mxCell>
        <mxCell id="3IxjjhFFeJZ0c-_MF_8P-103" value="standby" style="rounded=1;whiteSpace=wrap;html=1;verticalAlign=top;fontStyle=1;fillColor=#d5e8d4;strokeColor=#82b366;" parent="1" vertex="1">
          <mxGeometry x="970" y="755" width="120" height="60" as="geometry" />
        </mxCell>
        <mxCell id="9p7_hn-7ISHxo0ZbP1AZ-2" value="" style="edgeStyle=orthogonalEdgeStyle;rounded=0;orthogonalLoop=1;jettySize=auto;html=1;fillColor=#d5e8d4;strokeColor=#82b366;" edge="1" parent="1" source="3IxjjhFFeJZ0c-_MF_8P-105" target="GNvXrXQn0kBdOVzkOIlX-7">
          <mxGeometry relative="1" as="geometry">
            <Array as="points">
              <mxPoint x="940" y="970" />
              <mxPoint x="1120" y="970" />
            </Array>
          </mxGeometry>
        </mxCell>
        <mxCell id="3IxjjhFFeJZ0c-_MF_8P-105" value="ipv4 leased" style="rounded=1;whiteSpace=wrap;html=1;verticalAlign=top;fontStyle=1;fillColor=#d5e8d4;strokeColor=#82b366;" parent="1" vertex="1">
          <mxGeometry x="900" y="890" width="80" height="30" as="geometry" />
        </mxCell>
        <mxCell id="3IxjjhFFeJZ0c-_MF_8P-107" value="group active" style="rounded=1;whiteSpace=wrap;html=1;verticalAlign=top;fontStyle=1;fillColor=#e1d5e7;strokeColor=#9673a6;" parent="1" vertex="1">
          <mxGeometry x="170" y="830" width="120" height="60" as="geometry" />
        </mxCell>
        <mxCell id="3IxjjhFFeJZ0c-_MF_8P-109" value="" style="endArrow=classic;html=1;rounded=0;fillColor=#fff2cc;strokeColor=#d6b656;" parent="1" source="3IxjjhFFeJZ0c-_MF_8P-95" target="3IxjjhFFeJZ0c-_MF_8P-64" edge="1">
          <mxGeometry width="50" height="50" relative="1" as="geometry">
            <mxPoint x="390" y="800" as="sourcePoint" />
            <mxPoint x="440" y="750" as="targetPoint" />
            <Array as="points">
              <mxPoint x="310" y="330" />
            </Array>
          </mxGeometry>
        </mxCell>
        <mxCell id="3IxjjhFFeJZ0c-_MF_8P-110" value="X_RDK_WanManager.&lt;br&gt;CPEInterface.1.Phy.Status" style="text;html=1;align=center;verticalAlign=middle;resizable=0;points=[];autosize=1;strokeColor=none;fillColor=none;strokeWidth=0;fontStyle=2" parent="1" vertex="1">
          <mxGeometry x="445" y="480" width="170" height="40" as="geometry" />
        </mxCell>
        <mxCell id="3IxjjhFFeJZ0c-_MF_8P-111" value="Ethernet.X_RDK_Interface.&lt;br&gt;1.Upstream" style="text;html=1;align=center;verticalAlign=middle;resizable=0;points=[];autosize=1;strokeColor=none;fillColor=none;strokeWidth=0;fontStyle=2" parent="1" vertex="1">
          <mxGeometry x="-170" y="180" width="170" height="40" as="geometry" />
        </mxCell>
        <mxCell id="3IxjjhFFeJZ0c-_MF_8P-115" value="" style="edgeStyle=orthogonalEdgeStyle;rounded=0;orthogonalLoop=1;jettySize=auto;html=1;fillColor=#dae8fc;strokeColor=#6c8ebf;" parent="1" source="3IxjjhFFeJZ0c-_MF_8P-112" target="3IxjjhFFeJZ0c-_MF_8P-114" edge="1">
          <mxGeometry relative="1" as="geometry" />
        </mxCell>
        <mxCell id="3IxjjhFFeJZ0c-_MF_8P-112" value="exit" style="rounded=1;whiteSpace=wrap;html=1;fontSize=12;fontStyle=1;verticalAlign=top;fillColor=#dae8fc;strokeColor=#6c8ebf;" parent="1" vertex="1">
          <mxGeometry x="-330" y="330" width="120" height="60" as="geometry" />
        </mxCell>
        <mxCell id="3IxjjhFFeJZ0c-_MF_8P-119" value="" style="edgeStyle=orthogonalEdgeStyle;rounded=0;orthogonalLoop=1;jettySize=auto;html=1;fillColor=#dae8fc;strokeColor=#6c8ebf;" parent="1" source="3IxjjhFFeJZ0c-_MF_8P-114" target="3IxjjhFFeJZ0c-_MF_8P-118" edge="1">
          <mxGeometry relative="1" as="geometry" />
        </mxCell>
        <mxCell id="3IxjjhFFeJZ0c-_MF_8P-114" value="disconnected" style="rounded=1;whiteSpace=wrap;html=1;fontSize=12;fontStyle=1;verticalAlign=top;fillColor=#dae8fc;strokeColor=#6c8ebf;" parent="1" vertex="1">
          <mxGeometry x="-330" y="470" width="120" height="60" as="geometry" />
        </mxCell>
        <mxCell id="3IxjjhFFeJZ0c-_MF_8P-116" value="" style="endArrow=classic;html=1;rounded=0;fillColor=#dae8fc;strokeColor=#6c8ebf;" parent="1" source="3IxjjhFFeJZ0c-_MF_8P-111" target="3IxjjhFFeJZ0c-_MF_8P-84" edge="1">
          <mxGeometry width="50" height="50" relative="1" as="geometry">
            <mxPoint x="-490" y="340" as="sourcePoint" />
            <mxPoint x="-440" y="290" as="targetPoint" />
          </mxGeometry>
        </mxCell>
        <mxCell id="3IxjjhFFeJZ0c-_MF_8P-117" value="" style="endArrow=classic;html=1;rounded=0;" parent="1" source="3IxjjhFFeJZ0c-_MF_8P-95" target="3IxjjhFFeJZ0c-_MF_8P-111" edge="1">
          <mxGeometry width="50" height="50" relative="1" as="geometry">
            <mxPoint x="60" y="810" as="sourcePoint" />
            <mxPoint x="110" y="760" as="targetPoint" />
            <Array as="points">
              <mxPoint x="-85" y="630" />
            </Array>
          </mxGeometry>
        </mxCell>
        <mxCell id="3IxjjhFFeJZ0c-_MF_8P-121" value="" style="edgeStyle=orthogonalEdgeStyle;rounded=0;orthogonalLoop=1;jettySize=auto;html=1;fillColor=#dae8fc;strokeColor=#6c8ebf;" parent="1" source="3IxjjhFFeJZ0c-_MF_8P-118" target="3IxjjhFFeJZ0c-_MF_8P-120" edge="1">
          <mxGeometry relative="1" as="geometry" />
        </mxCell>
        <mxCell id="3IxjjhFFeJZ0c-_MF_8P-118" value="validating link" style="rounded=1;whiteSpace=wrap;html=1;fontSize=12;fontStyle=1;verticalAlign=top;fillColor=#dae8fc;strokeColor=#6c8ebf;" parent="1" vertex="1">
          <mxGeometry x="-330" y="610" width="120" height="60" as="geometry" />
        </mxCell>
        <mxCell id="3IxjjhFFeJZ0c-_MF_8P-123" value="" style="edgeStyle=orthogonalEdgeStyle;rounded=0;orthogonalLoop=1;jettySize=auto;html=1;fillColor=#dae8fc;strokeColor=#6c8ebf;" parent="1" source="3IxjjhFFeJZ0c-_MF_8P-120" target="3IxjjhFFeJZ0c-_MF_8P-122" edge="1">
          <mxGeometry relative="1" as="geometry" />
        </mxCell>
        <mxCell id="3IxjjhFFeJZ0c-_MF_8P-120" value="vlan configuring" style="rounded=1;whiteSpace=wrap;html=1;fontSize=12;fontStyle=1;verticalAlign=top;fillColor=#dae8fc;strokeColor=#6c8ebf;" parent="1" vertex="1">
          <mxGeometry x="-330" y="750" width="120" height="60" as="geometry" />
        </mxCell>
        <mxCell id="3IxjjhFFeJZ0c-_MF_8P-122" value="wan link up" style="rounded=1;whiteSpace=wrap;html=1;fontSize=12;fontStyle=1;verticalAlign=top;fillColor=#dae8fc;strokeColor=#6c8ebf;" parent="1" vertex="1">
          <mxGeometry x="-370" y="890" width="200" height="100" as="geometry" />
        </mxCell>
        <mxCell id="3IxjjhFFeJZ0c-_MF_8P-124" value="" style="endArrow=classic;html=1;rounded=0;fillColor=#dae8fc;strokeColor=#6c8ebf;" parent="1" source="3IxjjhFFeJZ0c-_MF_8P-122" target="3IxjjhFFeJZ0c-_MF_8P-112" edge="1">
          <mxGeometry width="50" height="50" relative="1" as="geometry">
            <mxPoint x="80" y="640" as="sourcePoint" />
            <mxPoint x="130" y="590" as="targetPoint" />
            <Array as="points">
              <mxPoint x="-390" y="940" />
              <mxPoint x="-390" y="360" />
            </Array>
          </mxGeometry>
        </mxCell>
        <mxCell id="3IxjjhFFeJZ0c-_MF_8P-128" value="" style="endArrow=classic;html=1;rounded=0;" parent="1" source="3IxjjhFFeJZ0c-_MF_8P-120" target="3IxjjhFFeJZ0c-_MF_8P-126" edge="1">
          <mxGeometry width="50" height="50" relative="1" as="geometry">
            <mxPoint x="390" y="600" as="sourcePoint" />
            <mxPoint x="60" y="801.0638297872342" as="targetPoint" />
            <Array as="points">
              <mxPoint x="-425" y="780" />
            </Array>
          </mxGeometry>
        </mxCell>
        <mxCell id="3IxjjhFFeJZ0c-_MF_8P-129" value="Ethernet.X_RDK_Interface.&lt;br&gt;1.Upstream" style="text;html=1;align=center;verticalAlign=middle;resizable=0;points=[];autosize=1;strokeColor=none;fillColor=none;strokeWidth=0;fontStyle=2" parent="1" vertex="1">
          <mxGeometry x="-355" y="930" width="170" height="40" as="geometry" />
        </mxCell>
        <mxCell id="3IxjjhFFeJZ0c-_MF_8P-133" value="" style="edgeStyle=orthogonalEdgeStyle;rounded=0;orthogonalLoop=1;jettySize=auto;html=1;fillColor=#ffe6cc;strokeColor=#d79b00;" parent="1" source="3IxjjhFFeJZ0c-_MF_8P-130" target="3IxjjhFFeJZ0c-_MF_8P-132" edge="1">
          <mxGeometry relative="1" as="geometry" />
        </mxCell>
        <mxCell id="3IxjjhFFeJZ0c-_MF_8P-130" value="validate configuration" style="rounded=1;whiteSpace=wrap;html=1;fontSize=12;fontStyle=1;fillColor=#ffe6cc;strokeColor=#d79b00;verticalAlign=top;" parent="1" vertex="1">
          <mxGeometry x="-870" y="180" width="120" height="40" as="geometry" />
        </mxCell>
        <mxCell id="3IxjjhFFeJZ0c-_MF_8P-135" value="" style="edgeStyle=orthogonalEdgeStyle;rounded=0;orthogonalLoop=1;jettySize=auto;html=1;fillColor=#ffe6cc;strokeColor=#d79b00;" parent="1" source="3IxjjhFFeJZ0c-_MF_8P-132" target="3IxjjhFFeJZ0c-_MF_8P-134" edge="1">
          <mxGeometry relative="1" as="geometry" />
        </mxCell>
        <mxCell id="3IxjjhFFeJZ0c-_MF_8P-132" value="first init" style="rounded=1;whiteSpace=wrap;html=1;fontSize=12;fontStyle=1;fillColor=#ffe6cc;strokeColor=#d79b00;verticalAlign=top;" parent="1" vertex="1">
          <mxGeometry x="-950" y="250" width="280" height="120" as="geometry" />
        </mxCell>
        <mxCell id="3IxjjhFFeJZ0c-_MF_8P-126" value="" style="rounded=0;whiteSpace=wrap;html=1;fillColor=#1ba1e2;strokeColor=default;fontColor=#ffffff;" parent="1" vertex="1">
          <mxGeometry x="-640" y="1077.5" width="430" height="282.5" as="geometry" />
        </mxCell>
        <mxCell id="3IxjjhFFeJZ0c-_MF_8P-127" value="Vlan Manager" style="text;html=1;strokeColor=none;fillColor=none;align=center;verticalAlign=middle;whiteSpace=wrap;rounded=0;fontSize=20;fontStyle=1" parent="1" vertex="1">
          <mxGeometry x="-370" y="1320" width="150" height="30" as="geometry" />
        </mxCell>
        <mxCell id="3IxjjhFFeJZ0c-_MF_8P-137" value="" style="edgeStyle=orthogonalEdgeStyle;rounded=0;orthogonalLoop=1;jettySize=auto;html=1;fillColor=#fff2cc;strokeColor=#d6b656;" parent="1" source="3IxjjhFFeJZ0c-_MF_8P-134" target="3IxjjhFFeJZ0c-_MF_8P-136" edge="1">
          <mxGeometry relative="1" as="geometry" />
        </mxCell>
        <mxCell id="3IxjjhFFeJZ0c-_MF_8P-134" value="obtaining active wan" style="rounded=1;whiteSpace=wrap;html=1;fontSize=12;fontStyle=1;fillColor=#ffe6cc;strokeColor=#d79b00;verticalAlign=top;" parent="1" vertex="1">
          <mxGeometry x="-1020" y="420" width="420" height="220" as="geometry" />
        </mxCell>
        <mxCell id="3IxjjhFFeJZ0c-_MF_8P-139" value="" style="edgeStyle=orthogonalEdgeStyle;rounded=0;orthogonalLoop=1;jettySize=auto;html=1;fillColor=#fff2cc;strokeColor=#d6b656;" parent="1" source="3IxjjhFFeJZ0c-_MF_8P-136" target="3IxjjhFFeJZ0c-_MF_8P-138" edge="1">
          <mxGeometry relative="1" as="geometry" />
        </mxCell>
        <mxCell id="3IxjjhFFeJZ0c-_MF_8P-136" value="validating wan" style="rounded=1;whiteSpace=wrap;html=1;fontSize=12;fontStyle=1;fillColor=#ffe6cc;strokeColor=#d79b00;verticalAlign=top;" parent="1" vertex="1">
          <mxGeometry x="-870" y="695" width="120" height="60" as="geometry" />
        </mxCell>
        <mxCell id="3IxjjhFFeJZ0c-_MF_8P-141" value="" style="edgeStyle=orthogonalEdgeStyle;rounded=0;orthogonalLoop=1;jettySize=auto;html=1;fillColor=#fff2cc;strokeColor=#d6b656;" parent="1" source="3IxjjhFFeJZ0c-_MF_8P-138" target="3IxjjhFFeJZ0c-_MF_8P-140" edge="1">
          <mxGeometry relative="1" as="geometry" />
        </mxCell>
        <mxCell id="3IxjjhFFeJZ0c-_MF_8P-138" value="wan configured" style="rounded=1;whiteSpace=wrap;html=1;fontSize=12;fontStyle=1;fillColor=#ffe6cc;strokeColor=#d79b00;verticalAlign=top;" parent="1" vertex="1">
          <mxGeometry x="-870" y="805" width="120" height="60" as="geometry" />
        </mxCell>
        <mxCell id="3IxjjhFFeJZ0c-_MF_8P-140" value="sensing wan" style="rounded=1;whiteSpace=wrap;html=1;fontSize=12;fontStyle=1;fillColor=#ffe6cc;strokeColor=#d79b00;verticalAlign=top;" parent="1" vertex="1">
          <mxGeometry x="-870" y="920" width="120" height="60" as="geometry" />
        </mxCell>
        <mxCell id="3IxjjhFFeJZ0c-_MF_8P-146" value="X_RDK_WanManager.CPEInterface.&lt;br&gt;1.Wan.LinkStatus" style="text;html=1;align=center;verticalAlign=middle;resizable=0;points=[];autosize=1;strokeColor=none;fillColor=none;fontStyle=2" parent="1" vertex="1">
          <mxGeometry x="920" y="360" width="220" height="40" as="geometry" />
        </mxCell>
        <mxCell id="3IxjjhFFeJZ0c-_MF_8P-147" value="" style="endArrow=classic;html=1;rounded=0;" parent="1" source="3IxjjhFFeJZ0c-_MF_8P-122" target="3IxjjhFFeJZ0c-_MF_8P-146" edge="1">
          <mxGeometry width="50" height="50" relative="1" as="geometry">
            <mxPoint x="-200" y="782" as="sourcePoint" />
            <mxPoint x="-120" y="771" as="targetPoint" />
            <Array as="points">
              <mxPoint x="870" y="940" />
              <mxPoint x="870" y="380" />
            </Array>
          </mxGeometry>
        </mxCell>
        <mxCell id="3IxjjhFFeJZ0c-_MF_8P-148" value="ipv4 / ipv6 ?" style="text;html=1;align=center;verticalAlign=middle;resizable=0;points=[];autosize=1;strokeColor=none;fillColor=none;" parent="1" vertex="1">
          <mxGeometry x="990" y="635" width="90" height="30" as="geometry" />
        </mxCell>
        <mxCell id="3IxjjhFFeJZ0c-_MF_8P-149" value="" style="endArrow=classic;html=1;rounded=0;" parent="1" source="3IxjjhFFeJZ0c-_MF_8P-95" target="3IxjjhFFeJZ0c-_MF_8P-129" edge="1">
          <mxGeometry width="50" height="50" relative="1" as="geometry">
            <mxPoint x="-200" y="782" as="sourcePoint" />
            <mxPoint x="-120" y="771" as="targetPoint" />
          </mxGeometry>
        </mxCell>
        <mxCell id="3IxjjhFFeJZ0c-_MF_8P-150" value="iface selected ?" style="text;html=1;align=center;verticalAlign=middle;resizable=0;points=[];autosize=1;strokeColor=none;fillColor=none;" parent="1" vertex="1">
          <mxGeometry x="980" y="670" width="110" height="30" as="geometry" />
        </mxCell>
        <mxCell id="3IxjjhFFeJZ0c-_MF_8P-151" value="" style="endArrow=classic;html=1;rounded=0;dashed=1;" parent="1" source="3IxjjhFFeJZ0c-_MF_8P-95" target="3IxjjhFFeJZ0c-_MF_8P-150" edge="1">
          <mxGeometry width="50" height="50" relative="1" as="geometry">
            <mxPoint x="480" y="770" as="sourcePoint" />
            <mxPoint x="-182" y="940" as="targetPoint" />
          </mxGeometry>
        </mxCell>
        <mxCell id="3IxjjhFFeJZ0c-_MF_8P-152" value="udhcpc&lt;br&gt;dibbler-client" style="rounded=0;whiteSpace=wrap;html=1;" parent="1" vertex="1">
          <mxGeometry x="1120" y="467.5" width="110" height="35" as="geometry" />
        </mxCell>
        <mxCell id="3IxjjhFFeJZ0c-_MF_8P-153" value="" style="endArrow=classic;html=1;rounded=0;dashed=1;" parent="1" source="3IxjjhFFeJZ0c-_MF_8P-152" target="3IxjjhFFeJZ0c-_MF_8P-148" edge="1">
          <mxGeometry width="50" height="50" relative="1" as="geometry">
            <mxPoint x="600" y="748" as="sourcePoint" />
            <mxPoint x="990" y="702" as="targetPoint" />
            <Array as="points">
              <mxPoint x="1110" y="630" />
            </Array>
          </mxGeometry>
        </mxCell>
        <mxCell id="3IxjjhFFeJZ0c-_MF_8P-154" value="" style="endArrow=classic;html=1;rounded=0;" parent="1" source="3IxjjhFFeJZ0c-_MF_8P-91" target="3IxjjhFFeJZ0c-_MF_8P-152" edge="1">
          <mxGeometry width="50" height="50" relative="1" as="geometry">
            <mxPoint x="1230" y="820" as="sourcePoint" />
            <mxPoint x="1280" y="770" as="targetPoint" />
          </mxGeometry>
        </mxCell>
        <mxCell id="3IxjjhFFeJZ0c-_MF_8P-155" value="X_RDK_WanManager.CPEInterface.&lt;br&gt;1.Wan.ActiveLink" style="text;html=1;align=center;verticalAlign=middle;resizable=0;points=[];autosize=1;strokeColor=none;fillColor=none;fontStyle=2" parent="1" vertex="1">
          <mxGeometry x="-920" y="470" width="220" height="40" as="geometry" />
        </mxCell>
        <mxCell id="3IxjjhFFeJZ0c-_MF_8P-156" value="X_RDK_WanManager.CPEInterface.1.IP.IPv4Status&lt;br&gt;X_RDK_WanManager.CPEInterface.1.IP.IPv6Status" style="text;html=1;align=center;verticalAlign=middle;resizable=0;points=[];autosize=1;strokeColor=none;fillColor=none;fontStyle=2" parent="1" vertex="1">
          <mxGeometry x="-970" y="530" width="300" height="40" as="geometry" />
        </mxCell>
        <mxCell id="3IxjjhFFeJZ0c-_MF_8P-95" value="waiting for iface teardown" style="rounded=1;whiteSpace=wrap;html=1;verticalAlign=top;fontStyle=1;fillColor=#fff2cc;strokeColor=#d6b656;" parent="1" vertex="1">
          <mxGeometry x="250" y="570" width="120" height="120" as="geometry" />
        </mxCell>
        <mxCell id="GNvXrXQn0kBdOVzkOIlX-5" value="" style="edgeStyle=orthogonalEdgeStyle;rounded=0;orthogonalLoop=1;jettySize=auto;html=1;fillColor=#fff2cc;strokeColor=#d6b656;" parent="1" source="GNvXrXQn0kBdOVzkOIlX-2" target="GNvXrXQn0kBdOVzkOIlX-4" edge="1">
          <mxGeometry relative="1" as="geometry" />
        </mxCell>
        <mxCell id="GNvXrXQn0kBdOVzkOIlX-2" value="interface reconfiguration" style="rounded=1;whiteSpace=wrap;html=1;verticalAlign=top;fontStyle=1;fillColor=#fff2cc;strokeColor=#d6b656;" parent="1" vertex="1">
          <mxGeometry x="470" y="720" width="120" height="60" as="geometry" />
        </mxCell>
        <mxCell id="GNvXrXQn0kBdOVzkOIlX-4" value="wan interface active" style="rounded=1;whiteSpace=wrap;html=1;verticalAlign=top;fontStyle=1;fillColor=#fff2cc;strokeColor=#d6b656;" parent="1" vertex="1">
          <mxGeometry x="470" y="860" width="120" height="60" as="geometry" />
        </mxCell>
        <mxCell id="9p7_hn-7ISHxo0ZbP1AZ-1" value="" style="edgeStyle=orthogonalEdgeStyle;rounded=0;orthogonalLoop=1;jettySize=auto;html=1;fillColor=#d5e8d4;strokeColor=#82b366;" edge="1" parent="1" source="GNvXrXQn0kBdOVzkOIlX-6" target="GNvXrXQn0kBdOVzkOIlX-7">
          <mxGeometry relative="1" as="geometry">
            <Array as="points">
              <mxPoint x="1030" y="970" />
              <mxPoint x="1120" y="970" />
            </Array>
          </mxGeometry>
        </mxCell>
        <mxCell id="GNvXrXQn0kBdOVzkOIlX-6" value="ipv6 leased" style="rounded=1;whiteSpace=wrap;html=1;verticalAlign=top;fontStyle=1;fillColor=#d5e8d4;strokeColor=#82b366;" parent="1" vertex="1">
          <mxGeometry x="990" y="920" width="80" height="30" as="geometry" />
        </mxCell>
        <mxCell id="GNvXrXQn0kBdOVzkOIlX-7" value="dual stack active" style="rounded=1;whiteSpace=wrap;html=1;verticalAlign=top;fontStyle=1;fillColor=#d5e8d4;strokeColor=#82b366;" parent="1" vertex="1">
          <mxGeometry x="1080" y="1000" width="80" height="40" as="geometry" />
        </mxCell>
        <mxCell id="GNvXrXQn0kBdOVzkOIlX-8" value="" style="edgeStyle=orthogonalEdgeStyle;rounded=0;orthogonalLoop=1;jettySize=auto;html=1;fillColor=#d5e8d4;strokeColor=#82b366;" parent="1" source="3IxjjhFFeJZ0c-_MF_8P-103" target="GNvXrXQn0kBdOVzkOIlX-6" edge="1">
          <mxGeometry relative="1" as="geometry">
            <mxPoint x="1040" y="825" as="sourcePoint" />
            <mxPoint x="970" y="900" as="targetPoint" />
          </mxGeometry>
        </mxCell>
        <mxCell id="GNvXrXQn0kBdOVzkOIlX-9" value="" style="edgeStyle=orthogonalEdgeStyle;rounded=0;orthogonalLoop=1;jettySize=auto;html=1;fillColor=#d5e8d4;strokeColor=#82b366;" parent="1" source="3IxjjhFFeJZ0c-_MF_8P-103" target="GNvXrXQn0kBdOVzkOIlX-7" edge="1">
          <mxGeometry relative="1" as="geometry">
            <mxPoint x="1040" y="825" as="sourcePoint" />
            <mxPoint x="1100" y="900" as="targetPoint" />
            <Array as="points">
              <mxPoint x="1030" y="850" />
              <mxPoint x="1120" y="850" />
            </Array>
          </mxGeometry>
        </mxCell>
        <mxCell id="GNvXrXQn0kBdOVzkOIlX-11" value="" style="edgeStyle=orthogonalEdgeStyle;rounded=0;orthogonalLoop=1;jettySize=auto;html=1;fillColor=#ffe6cc;strokeColor=#d79b00;" parent="1" source="3IxjjhFFeJZ0c-_MF_8P-49" target="3IxjjhFFeJZ0c-_MF_8P-80" edge="1">
          <mxGeometry relative="1" as="geometry">
            <mxPoint x="-800" y="165" as="sourcePoint" />
            <mxPoint x="-800" y="220" as="targetPoint" />
          </mxGeometry>
        </mxCell>
        <mxCell id="GNvXrXQn0kBdOVzkOIlX-12" value="&lt;div&gt;&lt;span style=&quot;background-color: initial;&quot;&gt;X_RDK_WanManager.Enable&lt;/span&gt;&lt;br&gt;&lt;/div&gt;" style="text;html=1;align=left;verticalAlign=middle;resizable=0;points=[];autosize=1;strokeColor=none;fillColor=none;fontStyle=2" parent="1" vertex="1">
          <mxGeometry x="370" y="80" width="180" height="30" as="geometry" />
        </mxCell>
        <mxCell id="GNvXrXQn0kBdOVzkOIlX-13" value="&lt;div&gt;X_RDK_VlanManager.Configuration.1.VLANId&lt;/div&gt;&lt;div&gt;X_RDK_VlanManager.Configuration.2.VLANId&lt;/div&gt;" style="text;html=1;align=left;verticalAlign=middle;resizable=0;points=[];autosize=1;strokeColor=none;fillColor=none;fontStyle=2" parent="1" vertex="1">
          <mxGeometry x="-600" y="1120" width="270" height="40" as="geometry" />
        </mxCell>
        <mxCell id="GNvXrXQn0kBdOVzkOIlX-14" value="" style="endArrow=classic;html=1;rounded=0;entryX=0.427;entryY=-0.086;entryDx=0;entryDy=0;entryPerimeter=0;" parent="1" source="3IxjjhFFeJZ0c-_MF_8P-132" target="GNvXrXQn0kBdOVzkOIlX-13" edge="1">
          <mxGeometry width="50" height="50" relative="1" as="geometry">
            <mxPoint x="-271" y="820" as="sourcePoint" />
            <mxPoint x="-365" y="1088" as="targetPoint" />
          </mxGeometry>
        </mxCell>
        <mxCell id="GNvXrXQn0kBdOVzkOIlX-15" value="" style="endArrow=classic;html=1;rounded=0;dashed=1;" parent="1" source="3IxjjhFFeJZ0c-_MF_8P-132" target="GNvXrXQn0kBdOVzkOIlX-12" edge="1">
          <mxGeometry width="50" height="50" relative="1" as="geometry">
            <mxPoint x="-776" y="380" as="sourcePoint" />
            <mxPoint x="-475" y="1127" as="targetPoint" />
            <Array as="points">
              <mxPoint x="-510" y="20" />
              <mxPoint x="150" y="20" />
            </Array>
          </mxGeometry>
        </mxCell>
        <mxCell id="3IxjjhFFeJZ0c-_MF_8P-70" value="" style="edgeStyle=orthogonalEdgeStyle;rounded=0;orthogonalLoop=1;jettySize=auto;html=1;fillColor=#e1d5e7;strokeColor=#000000;fontColor=#000000;dashed=1;" parent="1" source="3IxjjhFFeJZ0c-_MF_8P-58" target="3IxjjhFFeJZ0c-_MF_8P-63" edge="1">
          <mxGeometry relative="1" as="geometry" />
        </mxCell>
      </root>
    </mxGraphModel>
  </diagram>
</mxfile>
